HIERARCHY
ROOT sphere
{
	OFFSET 0.000000 0.000000 0.000000
	CHANNELS 6 Xposition Yposition Zposition Yrotation Xrotation Zrotation
	End Site
	{
		OFFSET 0.000000 0.000000 0.000000
	}
}
MOTION
Frames: 81
Frame Time: 0.008333334
-3.075520 0.587923 4.825471 -90.596160 14.919400 -42.161710 
-3.079395 0.585455 4.835361 -90.809630 15.094930 -42.340760 
-3.082962 0.582575 4.844692 -91.149960 15.615070 -43.664550 
-3.085864 0.578823 4.852623 -91.044680 15.596870 -43.906130 
-3.089817 0.576553 4.862998 -91.405580 15.962550 -45.021760 
-3.092688 0.572627 4.870970 -91.507110 16.044680 -45.201140 
-3.095971 0.569784 4.880972 -91.610960 16.106130 -45.627870 
-3.099741 0.567060 4.890224 -91.925450 16.395230 -46.489110 
-3.102254 0.562836 4.897654 -91.855650 16.592250 -47.240660 
-3.104596 0.559741 4.906105 -92.157560 16.699990 -47.842320 
-3.108129 0.556688 4.915742 -92.331670 16.881110 -48.142850 
-3.110376 0.552915 4.923556 -92.394100 17.025380 -49.097600 
-3.112846 0.549618 4.932404 -92.642700 17.253110 -49.816990 
-3.115461 0.546562 4.940708 -92.793180 17.341190 -50.310790 
-3.118045 0.543240 4.949717 -92.997960 17.462960 -51.144320 
-3.120398 0.539618 4.957675 -93.198850 17.574440 -51.714750 
-3.122954 0.536245 4.966061 -93.343810 17.743080 -52.317080 
-3.125001 0.532508 4.975049 -93.470280 17.805750 -52.829960 
-3.127253 0.529087 4.983516 -93.731660 17.919820 -53.609890 
-3.129192 0.525152 4.991337 -93.823060 17.993000 -54.204190 
-3.131195 0.522444 5.001036 -94.151180 18.252270 -55.289760 
-3.132575 0.518433 5.009200 -94.462920 18.316050 -55.722530 
-3.135007 0.515105 5.019103 -94.883480 18.409500 -56.639340 
-3.135834 0.510253 5.026436 -94.788700 18.260760 -57.024900 
-3.136844 0.506659 5.034429 -94.869510 18.222400 -57.480040 
-3.137831 0.502610 5.042946 -95.091400 18.408810 -58.247990 
-3.138484 0.498373 5.051378 -95.210720 18.234610 -58.835330 
-3.139894 0.495573 5.061278 -95.770970 18.419140 -59.954650 
-3.140428 0.491103 5.070303 -95.868040 18.362340 -60.616420 
-3.140331 0.486541 5.078063 -95.799500 18.183680 -60.894680 
-3.140129 0.482239 5.086605 -95.996980 18.092030 -61.647890 
-3.140595 0.477891 5.095426 -96.443120 18.168180 -62.392150 
-3.141562 0.474533 5.104784 -96.677760 18.179590 -63.272710 
-3.140995 0.470050 5.112882 -96.838440 18.028270 -63.891050 
-3.141201 0.465536 5.121525 -97.033260 17.951710 -64.801420 
-3.140565 0.461302 5.130836 -97.242740 17.930230 -65.454040 
-3.140557 0.456811 5.139324 -97.383910 17.765290 -66.139070 
-3.139876 0.452860 5.148134 -97.740660 17.831860 -66.774990 
-3.140057 0.447918 5.156607 -97.915710 17.634290 -67.362210 
-3.139222 0.443326 5.165519 -98.053410 17.470000 -68.244320 
-3.139319 0.438737 5.173549 -98.213620 17.364350 -68.891420 
-3.138731 0.434057 5.182589 -98.483400 17.296940 -69.546420 
-3.137927 0.428875 5.190907 -98.819270 17.150820 -70.438320 
-3.137478 0.423432 5.199706 -98.841190 16.971000 -70.907040 
-3.137372 0.418586 5.208640 -99.173340 16.901920 -71.648010 
-3.136336 0.414411 5.218215 -99.437740 16.681640 -72.472990 
-3.135211 0.408670 5.226541 -99.502500 16.525650 -73.149230 
-3.134065 0.403492 5.234924 -99.692750 16.260780 -73.817350 
-3.133397 0.398674 5.244149 -99.926150 16.072240 -74.596680 
-3.132356 0.392791 5.252708 -100.101200 15.876000 -75.475590 
-3.131369 0.388359 5.262120 -100.421700 15.705030 -76.210510 
-3.130303 0.382413 5.270081 -100.519800 15.438660 -77.083950 
-3.129217 0.377033 5.278510 -100.783600 15.272910 -77.868410 
-3.127597 0.371383 5.287395 -100.713600 14.951270 -78.613740 
-3.127266 0.365939 5.295927 -101.029800 14.764330 -79.374300 
-3.125902 0.359997 5.304544 -101.033100 14.539650 -80.030300 
-3.125278 0.354304 5.313866 -101.298400 14.229810 -80.478670 
-3.124063 0.348977 5.322032 -101.402300 13.978200 -81.465030 
-3.123566 0.343196 5.331702 -101.626100 13.745820 -82.225980 
-3.121255 0.338172 5.339383 -101.841900 13.570290 -83.178740 
-3.120831 0.331648 5.349119 -102.040600 13.243260 -83.888490 
-3.118741 0.326389 5.356612 -102.256700 13.088450 -84.633270 
-3.117392 0.320324 5.365340 -102.366300 12.766230 -85.424070 
-3.116132 0.313465 5.372989 -102.301900 12.316670 -86.251830 
-3.114343 0.307166 5.381366 -102.633800 11.972690 -86.919770 
-3.112492 0.301581 5.390226 -102.641000 11.683000 -87.626460 
-3.110939 0.295705 5.397799 -102.848300 11.403960 -88.610410 
-3.110169 0.289522 5.406333 -102.833200 10.985330 -89.198210 
-3.109254 0.283801 5.414794 -102.950700 10.714750 -90.112670 
-3.107911 0.277982 5.423288 -103.164200 10.420700 -90.819850 
-3.106659 0.271780 5.430706 -103.193600 10.058510 -91.583740 
-3.104799 0.265952 5.438826 -103.533100 9.689122 -92.286870 
-3.102598 0.260066 5.445980 -103.741200 9.391671 -92.974760 
-3.101803 0.254518 5.453463 -103.746700 9.028038 -93.685700 
-3.099823 0.248279 5.460186 -103.424200 8.633032 -94.693660 
-3.098274 0.242536 5.467836 -103.706200 8.278850 -95.414760 
-3.096963 0.236782 5.475057 -103.723000 7.950144 -96.231290 
-3.095192 0.230609 5.481705 -103.796900 7.608052 -96.853640 
-3.093947 0.224653 5.488997 -104.003600 7.231882 -97.463200 
-3.092298 0.217969 5.495956 -104.173700 6.955376 -98.372830 
-3.091302 0.211735 5.503732 -104.178800 6.582791 -99.162690 
